<svg xmlns="http://www.w3.org/2000/svg" viewBox="0 0 900 440" width="900" height="440" role="img" aria-label="DXCC Confirmed Entities Growth - BD4VOJ" style="background:#fff;font-family:Arial,sans-serif">
  <rect width="900" height="440" fill="white"/>
  <text x="450" y="25" text-anchor="middle" font-size="16" font-weight="bold" fill="#333">DXCC Confirmed Entities Growth - BD4VOJ</text>
  <line x1="60" y1="380" x2="780" y2="380" stroke="#e5e7eb" stroke-width="1"/>
  <text x="52" y="384" text-anchor="end" font-size="11" fill="#666">0</text>
  <line x1="60" y1="325" x2="780" y2="325" stroke="#e5e7eb" stroke-width="1"/>
  <text x="52" y="329" text-anchor="end" font-size="11" fill="#666">50</text>
  <line x1="60" y1="270" x2="780" y2="270" stroke="#e5e7eb" stroke-width="1"/>
  <text x="52" y="274" text-anchor="end" font-size="11" fill="#666">100</text>
  <line x1="60" y1="215" x2="780" y2="215" stroke="#e5e7eb" stroke-width="1"/>
  <text x="52" y="219" text-anchor="end" font-size="11" fill="#666">150</text>
  <line x1="60" y1="160" x2="780" y2="160" stroke="#e5e7eb" stroke-width="1"/>
  <text x="52" y="164" text-anchor="end" font-size="11" fill="#666">200</text>
  <line x1="60" y1="105" x2="780" y2="105" stroke="#e5e7eb" stroke-width="1"/>
  <text x="52" y="109" text-anchor="end" font-size="11" fill="#666">250</text>
  <line x1="60" y1="50" x2="780" y2="50" stroke="#e5e7eb" stroke-width="1"/>
  <text x="52" y="54" text-anchor="end" font-size="11" fill="#666">300</text>
  <line x1="60" y1="380" x2="780" y2="380" stroke="#999" stroke-width="1"/>
  <line x1="132" y1="380" x2="132" y2="385" stroke="#999" stroke-width="1"/>
  <text x="132" y="400" text-anchor="middle" font-size="10" fill="#666">2023-06</text>
  <line x1="240" y1="380" x2="240" y2="385" stroke="#999" stroke-width="1"/>
  <text x="240" y="400" text-anchor="middle" font-size="10" fill="#666">2023-12</text>
  <line x1="348" y1="380" x2="348" y2="385" stroke="#999" stroke-width="1"/>
  <text x="348" y="400" text-anchor="middle" font-size="10" fill="#666">2024-06</text>
  <line x1="456" y1="380" x2="456" y2="385" stroke="#999" stroke-width="1"/>
  <text x="456" y="400" text-anchor="middle" font-size="10" fill="#666">2024-12</text>
  <line x1="564" y1="380" x2="564" y2="385" stroke="#999" stroke-width="1"/>
  <text x="564" y="400" text-anchor="middle" font-size="10" fill="#666">2025-06</text>
  <line x1="672" y1="380" x2="672" y2="385" stroke="#999" stroke-width="1"/>
  <text x="672" y="400" text-anchor="middle" font-size="10" fill="#666">2025-12</text>
  <line x1="780" y1="380" x2="780" y2="385" stroke="#999" stroke-width="1"/>
  <text x="780" y="400" text-anchor="middle" font-size="10" fill="#666">2026-06</text>
  <line x1="60" y1="50" x2="60" y2="380" stroke="#999" stroke-width="1"/>
  <path d="M 60.0 366.8 C 66.0 352.5, 72.0 339.7, 78.0 329.4 C 84.0 319.1, 90.0 308.2, 96.0 303.0 C 102.0 297.8, 108.0 296.4, 114.0 292.0 C 120.0 287.6, 126.0 280.4, 132.0 275.5 C 138.0 270.6, 144.0 264.9, 150.0 262.3 C 156.0 259.7, 162.0 256.8, 168.0 256.8 C 174.0 256.8, 180.0 256.8, 186.0 256.8 C 192.0 256.8, 198.0 254.4, 204.0 252.4 C 210.0 250.4, 216.0 246.7, 222.0 243.6 C 228.0 240.5, 234.0 236.3, 240.0 233.7 C 246.0 231.1, 252.0 228.9, 258.0 227.1 C 264.0 225.3, 270.0 224.5, 276.0 222.7 C 282.0 220.9, 288.0 217.2, 294.0 216.1 C 300.0 215.0, 306.0 214.8, 312.0 213.9 C 318.0 213.0, 324.0 210.6, 330.0 210.6 C 336.0 210.6, 342.0 210.6, 348.0 210.6 C 354.0 210.6, 360.0 208.2, 366.0 207.3 C 372.0 206.4, 378.0 205.1, 384.0 205.1 C 390.0 205.1, 396.0 205.1, 402.0 205.1 C 408.0 205.1, 414.0 203.5, 420.0 201.8 C 426.0 200.1, 432.0 191.5, 438.0 190.8 C 444.0 190.1, 450.0 190.3, 456.0 189.7 C 462.0 189.1, 468.0 187.3, 474.0 186.4 C 480.0 185.5, 486.0 185.4, 492.0 184.2 C 498.0 183.0, 504.0 176.6, 510.0 175.4 C 516.0 174.2, 522.0 174.3, 528.0 173.2 C 534.0 172.1, 540.0 165.5, 546.0 165.5 C 552.0 165.5, 558.0 165.5, 564.0 165.5 C 570.0 165.5, 576.0 162.8, 582.0 162.2 C 588.0 161.6, 594.0 161.1, 600.0 161.1 C 606.0 161.1, 612.0 161.1, 618.0 161.1 C 624.0 161.1, 630.0 160.6, 636.0 160.0 C 642.0 159.4, 648.0 157.6, 654.0 156.7 C 660.0 155.8, 666.0 154.5, 672.0 154.5 C 678.0 154.5, 684.0 154.5, 690.0 154.5 C 696.0 154.5, 702.0 154.5, 708.0 154.5 C 714.0 154.5, 720.0 152.8, 726.0 152.3 C 732.0 151.8, 738.0 151.8, 744.0 151.2 C 750.0 150.6, 756.0 147.9, 762.0 147.9 C 768.0 147.9, 774.0 147.9, 780.0 147.9" fill="none" stroke="#3b82f6" stroke-width="2.25" stroke-linejoin="round" stroke-linecap="round"/>
  <path d="M 60.0 378.9 C 66.0 378.9, 72.0 378.9, 78.0 378.9 C 84.0 378.9, 90.0 378.9, 96.0 378.9 C 102.0 378.9, 108.0 378.9, 114.0 378.9 C 120.0 378.9, 126.0 378.9, 132.0 378.9 C 138.0 378.9, 144.0 378.9, 150.0 378.9 C 156.0 378.9, 162.0 378.9, 168.0 378.9 C 174.0 378.9, 180.0 378.9, 186.0 378.9 C 192.0 378.9, 198.0 378.9, 204.0 378.9 C 210.0 378.9, 216.0 378.9, 222.0 378.9 C 228.0 378.9, 234.0 378.9, 240.0 378.9 C 246.0 378.9, 252.0 378.9, 258.0 378.9 C 264.0 378.9, 270.0 378.9, 276.0 378.9 C 282.0 378.9, 288.0 377.4, 294.0 376.7 C 300.0 376.0, 306.0 374.5, 312.0 374.5 C 318.0 374.5, 324.0 374.5, 330.0 374.5 C 336.0 374.5, 342.0 374.5, 348.0 374.5 C 354.0 374.5, 360.0 374.5, 366.0 374.5 C 372.0 374.5, 378.0 374.5, 384.0 374.5 C 390.0 374.5, 396.0 374.5, 402.0 374.5 C 408.0 374.5, 414.0 370.3, 420.0 367.9 C 426.0 365.5, 432.0 362.6, 438.0 360.2 C 444.0 357.8, 450.0 354.7, 456.0 353.6 C 462.0 352.5, 468.0 351.9, 474.0 351.4 C 480.0 350.9, 486.0 350.3, 492.0 350.3 C 498.0 350.3, 504.0 350.3, 510.0 350.3 C 516.0 350.3, 522.0 350.3, 528.0 350.3 C 534.0 350.3, 540.0 349.6, 546.0 349.2 C 552.0 348.8, 558.0 348.1, 564.0 348.1 C 570.0 348.1, 576.0 348.1, 582.0 348.1 C 588.0 348.1, 594.0 348.1, 600.0 348.1 C 606.0 348.1, 612.0 348.1, 618.0 348.1 C 624.0 348.1, 630.0 340.4, 636.0 337.1 C 642.0 333.8, 648.0 329.9, 654.0 328.3 C 660.0 326.7, 666.0 325.0, 672.0 325.0 C 678.0 325.0, 684.0 325.0, 690.0 325.0 C 696.0 325.0, 702.0 323.9, 708.0 323.9 C 714.0 323.9, 720.0 323.9, 726.0 323.9 C 732.0 323.9, 738.0 321.7, 744.0 321.7 C 750.0 321.7, 756.0 321.7, 762.0 321.7 C 768.0 321.7, 774.0 321.1, 780.0 320.6" fill="none" stroke="#22c55e" stroke-width="2.25" stroke-linejoin="round" stroke-linecap="round"/>
  <path d="M 60.0 380.0 C 66.0 380.0, 72.0 380.0, 78.0 380.0 C 84.0 380.0, 90.0 380.0, 96.0 380.0 C 102.0 380.0, 108.0 380.0, 114.0 380.0 C 120.0 380.0, 126.0 380.0, 132.0 380.0 C 138.0 380.0, 144.0 380.0, 150.0 380.0 C 156.0 380.0, 162.0 380.0, 168.0 380.0 C 174.0 380.0, 180.0 380.0, 186.0 380.0 C 192.0 380.0, 198.0 380.0, 204.0 380.0 C 210.0 380.0, 216.0 380.0, 222.0 380.0 C 228.0 380.0, 234.0 378.9, 240.0 378.9 C 246.0 378.9, 252.0 378.9, 258.0 378.9 C 264.0 378.9, 270.0 378.9, 276.0 378.9 C 282.0 378.9, 288.0 378.9, 294.0 378.9 C 300.0 378.9, 306.0 378.9, 312.0 378.9 C 318.0 378.9, 324.0 378.9, 330.0 378.9 C 336.0 378.9, 342.0 378.9, 348.0 378.9 C 354.0 378.9, 360.0 378.9, 366.0 378.9 C 372.0 378.9, 378.0 378.9, 384.0 378.9 C 390.0 378.9, 396.0 378.9, 402.0 378.9 C 408.0 378.9, 414.0 378.0, 420.0 376.7 C 426.0 375.4, 432.0 360.5, 438.0 354.7 C 444.0 348.9, 450.0 340.4, 456.0 340.4 C 462.0 340.4, 468.0 340.4, 474.0 340.4 C 480.0 340.4, 486.0 339.3, 492.0 339.3 C 498.0 339.3, 504.0 339.3, 510.0 339.3 C 516.0 339.3, 522.0 339.3, 528.0 339.3 C 534.0 339.3, 540.0 333.8, 546.0 332.7 C 552.0 331.6, 558.0 330.5, 564.0 330.5 C 570.0 330.5, 576.0 330.5, 582.0 330.5 C 588.0 330.5, 594.0 330.5, 600.0 330.5 C 606.0 330.5, 612.0 330.5, 618.0 330.5 C 624.0 330.5, 630.0 330.5, 636.0 330.5 C 642.0 330.5, 648.0 330.5, 654.0 330.5 C 660.0 330.5, 666.0 309.8, 672.0 308.5 C 678.0 307.2, 684.0 306.3, 690.0 306.3 C 696.0 306.3, 702.0 306.3, 708.0 306.3 C 714.0 306.3, 720.0 306.3, 726.0 306.3 C 732.0 306.3, 738.0 305.2, 744.0 305.2 C 750.0 305.2, 756.0 305.2, 762.0 305.2 C 768.0 305.2, 774.0 303.0, 780.0 300.8" fill="none" stroke="#f97316" stroke-width="2.25" stroke-linejoin="round" stroke-linecap="round"/>
  <path d="M 60.0 367.9 C 66.0 353.6, 72.0 340.8, 78.0 330.5 C 84.0 320.2, 90.0 309.3, 96.0 304.1 C 102.0 298.9, 108.0 297.5, 114.0 293.1 C 120.0 288.7, 126.0 281.5, 132.0 276.6 C 138.0 271.7, 144.0 266.0, 150.0 263.4 C 156.0 260.8, 162.0 257.9, 168.0 257.9 C 174.0 257.9, 180.0 257.9, 186.0 257.9 C 192.0 257.9, 198.0 255.5, 204.0 253.5 C 210.0 251.5, 216.0 247.8, 222.0 244.7 C 228.0 241.6, 234.0 237.4, 240.0 234.8 C 246.0 232.2, 252.0 230.0, 258.0 228.2 C 264.0 226.4, 270.0 225.6, 276.0 223.8 C 282.0 222.0, 288.0 218.3, 294.0 217.2 C 300.0 216.1, 306.0 215.9, 312.0 215.0 C 318.0 214.1, 324.0 211.7, 330.0 211.7 C 336.0 211.7, 342.0 211.7, 348.0 211.7 C 354.0 211.7, 360.0 208.3, 366.0 207.3 C 372.0 206.3, 378.0 205.1, 384.0 205.1 C 390.0 205.1, 396.0 205.1, 402.0 205.1 C 408.0 205.1, 414.0 203.5, 420.0 201.8 C 426.0 200.1, 432.0 191.5, 438.0 190.8 C 444.0 190.1, 450.0 190.3, 456.0 189.7 C 462.0 189.1, 468.0 187.3, 474.0 186.4 C 480.0 185.5, 486.0 185.4, 492.0 184.2 C 498.0 183.0, 504.0 176.6, 510.0 175.4 C 516.0 174.2, 522.0 174.3, 528.0 173.2 C 534.0 172.1, 540.0 165.5, 546.0 165.5 C 552.0 165.5, 558.0 165.5, 564.0 165.5 C 570.0 165.5, 576.0 162.8, 582.0 162.2 C 588.0 161.6, 594.0 161.1, 600.0 161.1 C 606.0 161.1, 612.0 161.1, 618.0 161.1 C 624.0 161.1, 630.0 160.6, 636.0 160.0 C 642.0 159.4, 648.0 157.6, 654.0 156.7 C 660.0 155.8, 666.0 154.5, 672.0 154.5 C 678.0 154.5, 684.0 154.5, 690.0 154.5 C 696.0 154.5, 702.0 154.5, 708.0 154.5 C 714.0 154.5, 720.0 152.8, 726.0 152.3 C 732.0 151.8, 738.0 151.8, 744.0 151.2 C 750.0 150.6, 756.0 147.9, 762.0 147.9 C 768.0 147.9, 774.0 147.9, 780.0 147.9" fill="none" stroke="#a855f7" stroke-width="2.25" stroke-linejoin="round" stroke-linecap="round"/>
  <line x1="132.0" y1="275.5" x2="132.0" y2="263.5" stroke="#3b82f6" stroke-width="1" stroke-opacity="0.55"/>
  <circle cx="132.0" cy="275.5" r="3" fill="white" stroke="#3b82f6" stroke-width="2"><title>2023-06 · Mixed: 95</title></circle>
  <text x="132.0" y="267.5" text-anchor="middle" font-size="10" font-weight="600" fill="#3b82f6" stroke="white" stroke-width="3" paint-order="stroke">95</text>
  <line x1="132.0" y1="276.6" x2="132.0" y2="280.6" stroke="#a855f7" stroke-width="1" stroke-opacity="0.55"/>
  <circle cx="132.0" cy="276.6" r="3" fill="white" stroke="#a855f7" stroke-width="2"><title>2023-06 · Digital: 94</title></circle>
  <text x="132.0" y="284.6" text-anchor="middle" font-size="10" font-weight="600" fill="#a855f7" stroke="white" stroke-width="3" paint-order="stroke">94</text>
  <line x1="132.0" y1="378.9" x2="132.0" y2="365.9" stroke="#22c55e" stroke-width="1" stroke-opacity="0.55"/>
  <circle cx="132.0" cy="378.9" r="3" fill="white" stroke="#22c55e" stroke-width="2"><title>2023-06 · Phone: 1</title></circle>
  <text x="132.0" y="369.9" text-anchor="middle" font-size="10" font-weight="600" fill="#22c55e" stroke="white" stroke-width="3" paint-order="stroke">1</text>
  <line x1="240.0" y1="233.7" x2="240.0" y2="221.7" stroke="#3b82f6" stroke-width="1" stroke-opacity="0.55"/>
  <circle cx="240.0" cy="233.7" r="3" fill="white" stroke="#3b82f6" stroke-width="2"><title>2023-12 · Mixed: 133</title></circle>
  <text x="240.0" y="225.7" text-anchor="middle" font-size="10" font-weight="600" fill="#3b82f6" stroke="white" stroke-width="3" paint-order="stroke">133</text>
  <line x1="240.0" y1="234.8" x2="240.0" y2="238.8" stroke="#a855f7" stroke-width="1" stroke-opacity="0.55"/>
  <circle cx="240.0" cy="234.8" r="3" fill="white" stroke="#a855f7" stroke-width="2"><title>2023-12 · Digital: 132</title></circle>
  <text x="240.0" y="242.8" text-anchor="middle" font-size="10" font-weight="600" fill="#a855f7" stroke="white" stroke-width="3" paint-order="stroke">132</text>
  <line x1="240.0" y1="378.9" x2="240.0" y2="365.9" stroke="#f97316" stroke-width="1" stroke-opacity="0.55"/>
  <circle cx="240.0" cy="378.9" r="3" fill="white" stroke="#f97316" stroke-width="2"><title>2023-12 · CW: 1</title></circle>
  <text x="240.0" y="369.9" text-anchor="middle" font-size="10" font-weight="600" fill="#f97316" stroke="white" stroke-width="3" paint-order="stroke">1</text>
  <line x1="348.0" y1="210.6" x2="348.0" y2="198.6" stroke="#3b82f6" stroke-width="1" stroke-opacity="0.55"/>
  <circle cx="348.0" cy="210.6" r="3" fill="white" stroke="#3b82f6" stroke-width="2"><title>2024-06 · Mixed: 154</title></circle>
  <text x="348.0" y="202.6" text-anchor="middle" font-size="10" font-weight="600" fill="#3b82f6" stroke="white" stroke-width="3" paint-order="stroke">154</text>
  <line x1="348.0" y1="211.7" x2="348.0" y2="215.7" stroke="#a855f7" stroke-width="1" stroke-opacity="0.55"/>
  <circle cx="348.0" cy="211.7" r="3" fill="white" stroke="#a855f7" stroke-width="2"><title>2024-06 · Digital: 153</title></circle>
  <text x="348.0" y="219.7" text-anchor="middle" font-size="10" font-weight="600" fill="#a855f7" stroke="white" stroke-width="3" paint-order="stroke">153</text>
  <line x1="348.0" y1="374.5" x2="348.0" y2="361.5" stroke="#22c55e" stroke-width="1" stroke-opacity="0.55"/>
  <circle cx="348.0" cy="374.5" r="3" fill="white" stroke="#22c55e" stroke-width="2"><title>2024-06 · Phone: 5</title></circle>
  <text x="348.0" y="365.5" text-anchor="middle" font-size="10" font-weight="600" fill="#22c55e" stroke="white" stroke-width="3" paint-order="stroke">5</text>
  <line x1="456.0" y1="189.7" x2="456.0" y2="177.7" stroke="#3b82f6" stroke-width="1" stroke-opacity="0.55"/>
  <circle cx="456.0" cy="189.7" r="3" fill="white" stroke="#3b82f6" stroke-width="2"><title>2024-12 · Mixed: 173</title></circle>
  <text x="456.0" y="181.7" text-anchor="middle" font-size="10" font-weight="600" fill="#3b82f6" stroke="white" stroke-width="3" paint-order="stroke">173</text>
  <line x1="456.0" y1="189.7" x2="456.0" y2="193.7" stroke="#a855f7" stroke-width="1" stroke-opacity="0.55"/>
  <circle cx="456.0" cy="189.7" r="3" fill="white" stroke="#a855f7" stroke-width="2"><title>2024-12 · Digital: 173</title></circle>
  <text x="456.0" y="197.7" text-anchor="middle" font-size="10" font-weight="600" fill="#a855f7" stroke="white" stroke-width="3" paint-order="stroke">173</text>
  <line x1="456.0" y1="340.4" x2="456.0" y2="328.4" stroke="#f97316" stroke-width="1" stroke-opacity="0.55"/>
  <circle cx="456.0" cy="340.4" r="3" fill="white" stroke="#f97316" stroke-width="2"><title>2024-12 · CW: 36</title></circle>
  <text x="456.0" y="332.4" text-anchor="middle" font-size="10" font-weight="600" fill="#f97316" stroke="white" stroke-width="3" paint-order="stroke">36</text>
  <line x1="456.0" y1="353.6" x2="456.0" y2="357.6" stroke="#22c55e" stroke-width="1" stroke-opacity="0.55"/>
  <circle cx="456.0" cy="353.6" r="3" fill="white" stroke="#22c55e" stroke-width="2"><title>2024-12 · Phone: 24</title></circle>
  <text x="456.0" y="361.6" text-anchor="middle" font-size="10" font-weight="600" fill="#22c55e" stroke="white" stroke-width="3" paint-order="stroke">24</text>
  <line x1="564.0" y1="165.5" x2="564.0" y2="153.5" stroke="#3b82f6" stroke-width="1" stroke-opacity="0.55"/>
  <circle cx="564.0" cy="165.5" r="3" fill="white" stroke="#3b82f6" stroke-width="2"><title>2025-06 · Mixed: 195</title></circle>
  <text x="564.0" y="157.5" text-anchor="middle" font-size="10" font-weight="600" fill="#3b82f6" stroke="white" stroke-width="3" paint-order="stroke">195</text>
  <line x1="564.0" y1="165.5" x2="564.0" y2="169.5" stroke="#a855f7" stroke-width="1" stroke-opacity="0.55"/>
  <circle cx="564.0" cy="165.5" r="3" fill="white" stroke="#a855f7" stroke-width="2"><title>2025-06 · Digital: 195</title></circle>
  <text x="564.0" y="173.5" text-anchor="middle" font-size="10" font-weight="600" fill="#a855f7" stroke="white" stroke-width="3" paint-order="stroke">195</text>
  <line x1="564.0" y1="330.5" x2="564.0" y2="318.5" stroke="#f97316" stroke-width="1" stroke-opacity="0.55"/>
  <circle cx="564.0" cy="330.5" r="3" fill="white" stroke="#f97316" stroke-width="2"><title>2025-06 · CW: 45</title></circle>
  <text x="564.0" y="322.5" text-anchor="middle" font-size="10" font-weight="600" fill="#f97316" stroke="white" stroke-width="3" paint-order="stroke">45</text>
  <line x1="564.0" y1="348.1" x2="564.0" y2="352.1" stroke="#22c55e" stroke-width="1" stroke-opacity="0.55"/>
  <circle cx="564.0" cy="348.1" r="3" fill="white" stroke="#22c55e" stroke-width="2"><title>2025-06 · Phone: 29</title></circle>
  <text x="564.0" y="356.1" text-anchor="middle" font-size="10" font-weight="600" fill="#22c55e" stroke="white" stroke-width="3" paint-order="stroke">29</text>
  <line x1="672.0" y1="154.5" x2="672.0" y2="142.5" stroke="#3b82f6" stroke-width="1" stroke-opacity="0.55"/>
  <circle cx="672.0" cy="154.5" r="3" fill="white" stroke="#3b82f6" stroke-width="2"><title>2025-12 · Mixed: 205</title></circle>
  <text x="672.0" y="146.5" text-anchor="middle" font-size="10" font-weight="600" fill="#3b82f6" stroke="white" stroke-width="3" paint-order="stroke">205</text>
  <line x1="672.0" y1="154.5" x2="672.0" y2="158.5" stroke="#a855f7" stroke-width="1" stroke-opacity="0.55"/>
  <circle cx="672.0" cy="154.5" r="3" fill="white" stroke="#a855f7" stroke-width="2"><title>2025-12 · Digital: 205</title></circle>
  <text x="672.0" y="162.5" text-anchor="middle" font-size="10" font-weight="600" fill="#a855f7" stroke="white" stroke-width="3" paint-order="stroke">205</text>
  <line x1="672.0" y1="308.5" x2="672.0" y2="296.5" stroke="#f97316" stroke-width="1" stroke-opacity="0.55"/>
  <circle cx="672.0" cy="308.5" r="3" fill="white" stroke="#f97316" stroke-width="2"><title>2025-12 · CW: 65</title></circle>
  <text x="672.0" y="300.5" text-anchor="middle" font-size="10" font-weight="600" fill="#f97316" stroke="white" stroke-width="3" paint-order="stroke">65</text>
  <line x1="672.0" y1="325.0" x2="672.0" y2="329.0" stroke="#22c55e" stroke-width="1" stroke-opacity="0.55"/>
  <circle cx="672.0" cy="325.0" r="3" fill="white" stroke="#22c55e" stroke-width="2"><title>2025-12 · Phone: 50</title></circle>
  <text x="672.0" y="333.0" text-anchor="middle" font-size="10" font-weight="600" fill="#22c55e" stroke="white" stroke-width="3" paint-order="stroke">50</text>
  <line x1="780.0" y1="147.9" x2="789.0" y2="135.9" stroke="#3b82f6" stroke-width="1" stroke-opacity="0.55"/>
  <circle cx="780.0" cy="147.9" r="3" fill="white" stroke="#3b82f6" stroke-width="2"><title>2026-06 · Mixed: 211</title></circle>
  <text x="789.0" y="139.9" text-anchor="start" font-size="10" font-weight="600" fill="#3b82f6" stroke="white" stroke-width="3" paint-order="stroke">Mixed 211</text>
  <line x1="780.0" y1="147.9" x2="789.0" y2="151.9" stroke="#a855f7" stroke-width="1" stroke-opacity="0.55"/>
  <circle cx="780.0" cy="147.9" r="3" fill="white" stroke="#a855f7" stroke-width="2"><title>2026-06 · Digital: 211</title></circle>
  <text x="789.0" y="155.9" text-anchor="start" font-size="10" font-weight="600" fill="#a855f7" stroke="white" stroke-width="3" paint-order="stroke">Digital 211</text>
  <line x1="780.0" y1="300.8" x2="789.0" y2="287.8" stroke="#f97316" stroke-width="1" stroke-opacity="0.55"/>
  <circle cx="780.0" cy="300.8" r="3" fill="white" stroke="#f97316" stroke-width="2"><title>2026-06 · CW: 72</title></circle>
  <text x="789.0" y="291.8" text-anchor="start" font-size="10" font-weight="600" fill="#f97316" stroke="white" stroke-width="3" paint-order="stroke">CW 72</text>
  <line x1="780.0" y1="320.6" x2="789.0" y2="307.6" stroke="#22c55e" stroke-width="1" stroke-opacity="0.55"/>
  <circle cx="780.0" cy="320.6" r="3" fill="white" stroke="#22c55e" stroke-width="2"><title>2026-06 · Phone: 54</title></circle>
  <text x="789.0" y="311.6" text-anchor="start" font-size="10" font-weight="600" fill="#22c55e" stroke="white" stroke-width="3" paint-order="stroke">Phone 54</text>
  <rect x="62" y="53" width="185" height="88" rx="4" fill="white" fill-opacity="0.9" stroke="#ddd" stroke-width="1"/>
  <line x1="70" y1="65" x2="90" y2="65" stroke="#3b82f6" stroke-width="2.5" stroke-linecap="round"/>
  <circle cx="80" cy="65" r="3" fill="#3b82f6"/>
  <text x="96" y="69" font-size="10" fill="#333">Mixed (all modes)</text>
  <line x1="70" y1="85" x2="90" y2="85" stroke="#22c55e" stroke-width="2.5" stroke-linecap="round"/>
  <circle cx="80" cy="85" r="3" fill="#22c55e"/>
  <text x="96" y="89" font-size="10" fill="#333">Phone (SSB/FM)</text>
  <line x1="70" y1="105" x2="90" y2="105" stroke="#f97316" stroke-width="2.5" stroke-linecap="round"/>
  <circle cx="80" cy="105" r="3" fill="#f97316"/>
  <text x="96" y="109" font-size="10" fill="#333">CW</text>
  <line x1="70" y1="125" x2="90" y2="125" stroke="#a855f7" stroke-width="2.5" stroke-linecap="round"/>
  <circle cx="80" cy="125" r="3" fill="#a855f7"/>
  <text x="96" y="129" font-size="10" fill="#333">Digital (FT8/RTTY/...)</text>
</svg>
