<svg xmlns="http://www.w3.org/2000/svg" viewBox="0 0 800 400" width="800" height="400" style="background:#fff;font-family:Arial,sans-serif">
  <text x="400" y="25" text-anchor="middle" font-size="16" font-weight="bold" fill="#333">DXCC Confirmed Entities Growth - BD4VOJ</text>
  <line x1="60" y1="340" x2="770" y2="340" stroke="#e5e7eb" stroke-width="1"/>
  <text x="52" y="344" text-anchor="end" font-size="11" fill="#666">0</text>
  <line x1="60" y1="291.6666666666667" x2="770" y2="291.6666666666667" stroke="#e5e7eb" stroke-width="1"/>
  <text x="52" y="295.6666666666667" text-anchor="end" font-size="11" fill="#666">50</text>
  <line x1="60" y1="243.33333333333334" x2="770" y2="243.33333333333334" stroke="#e5e7eb" stroke-width="1"/>
  <text x="52" y="247.33333333333334" text-anchor="end" font-size="11" fill="#666">100</text>
  <line x1="60" y1="195" x2="770" y2="195" stroke="#e5e7eb" stroke-width="1"/>
  <text x="52" y="199" text-anchor="end" font-size="11" fill="#666">150</text>
  <line x1="60" y1="146.66666666666669" x2="770" y2="146.66666666666669" stroke="#e5e7eb" stroke-width="1"/>
  <text x="52" y="150.66666666666669" text-anchor="end" font-size="11" fill="#666">200</text>
  <line x1="60" y1="98.33333333333331" x2="770" y2="98.33333333333331" stroke="#e5e7eb" stroke-width="1"/>
  <text x="52" y="102.33333333333331" text-anchor="end" font-size="11" fill="#666">250</text>
  <line x1="60" y1="50" x2="770" y2="50" stroke="#e5e7eb" stroke-width="1"/>
  <text x="52" y="54" text-anchor="end" font-size="11" fill="#666">300</text>
  <line x1="60" y1="340" x2="770" y2="340" stroke="#999" stroke-width="1"/>
  <line x1="132.82051282051282" y1="340" x2="132.82051282051282" y2="345" stroke="#999" stroke-width="1"/>
  <text x="132.82051282051282" y="360" text-anchor="middle" font-size="10" fill="#666">2023-06</text>
  <line x1="242.05128205128204" y1="340" x2="242.05128205128204" y2="345" stroke="#999" stroke-width="1"/>
  <text x="242.05128205128204" y="360" text-anchor="middle" font-size="10" fill="#666">2023-12</text>
  <line x1="351.28205128205127" y1="340" x2="351.28205128205127" y2="345" stroke="#999" stroke-width="1"/>
  <text x="351.28205128205127" y="360" text-anchor="middle" font-size="10" fill="#666">2024-06</text>
  <line x1="460.5128205128205" y1="340" x2="460.5128205128205" y2="345" stroke="#999" stroke-width="1"/>
  <text x="460.5128205128205" y="360" text-anchor="middle" font-size="10" fill="#666">2024-12</text>
  <line x1="569.7435897435897" y1="340" x2="569.7435897435897" y2="345" stroke="#999" stroke-width="1"/>
  <text x="569.7435897435897" y="360" text-anchor="middle" font-size="10" fill="#666">2025-06</text>
  <line x1="678.9743589743589" y1="340" x2="678.9743589743589" y2="345" stroke="#999" stroke-width="1"/>
  <text x="678.9743589743589" y="360" text-anchor="middle" font-size="10" fill="#666">2025-12</text>
  <line x1="60" y1="50" x2="60" y2="340" stroke="#999" stroke-width="1"/>
  <polyline points="60.0,328.4 78.2,295.5 96.4,272.3 114.6,262.7 132.8,248.2 151.0,236.6 169.2,231.7 187.4,231.7 205.6,227.9 223.8,220.1 242.1,211.4 260.3,205.6 278.5,201.8 296.7,196.0 314.9,194.0 333.1,191.1 351.3,191.1 369.5,188.2 387.7,186.3 405.9,186.3 424.1,183.4 442.3,173.7 460.5,172.8 478.7,169.9 496.9,167.9 515.1,160.2 533.3,158.3 551.5,151.5 569.7,151.5 587.9,148.6 606.2,147.6 624.4,147.6 642.6,146.7 660.8,143.8 679.0,141.8 697.2,141.8 715.4,141.8 733.6,139.9 751.8,138.9 770.0,137.0" fill="none" stroke="#3b82f6" stroke-width="2" stroke-linejoin="round" stroke-linecap="round"/>
  <polyline points="60.0,339.0 78.2,339.0 96.4,339.0 114.6,339.0 132.8,339.0 151.0,339.0 169.2,339.0 187.4,339.0 205.6,339.0 223.8,339.0 242.1,339.0 260.3,339.0 278.5,339.0 296.7,337.1 314.9,335.2 333.1,335.2 351.3,335.2 369.5,335.2 387.7,335.2 405.9,335.2 424.1,329.4 442.3,322.6 460.5,316.8 478.7,314.9 496.9,313.9 515.1,313.9 533.3,313.9 551.5,312.9 569.7,312.0 587.9,312.0 606.2,312.0 624.4,312.0 642.6,301.3 660.8,293.6 679.0,290.7 697.2,290.7 715.4,289.7 733.6,289.7 751.8,287.8 770.0,287.8" fill="none" stroke="#22c55e" stroke-width="2" stroke-linejoin="round" stroke-linecap="round"/>
  <polyline points="60.0,340.0 78.2,340.0 96.4,340.0 114.6,340.0 132.8,340.0 151.0,340.0 169.2,340.0 187.4,340.0 205.6,340.0 223.8,340.0 242.1,339.0 260.3,339.0 278.5,339.0 296.7,339.0 314.9,339.0 333.1,339.0 351.3,339.0 369.5,339.0 387.7,339.0 405.9,339.0 424.1,337.1 442.3,317.8 460.5,305.2 478.7,305.2 496.9,304.2 515.1,304.2 533.3,304.2 551.5,298.4 569.7,296.5 587.9,296.5 606.2,296.5 624.4,296.5 642.6,296.5 660.8,296.5 679.0,277.2 697.2,275.2 715.4,275.2 733.6,275.2 751.8,274.3 770.0,274.3" fill="none" stroke="#f97316" stroke-width="2" stroke-linejoin="round" stroke-linecap="round"/>
  <polyline points="60.0,329.4 78.2,296.5 96.4,273.3 114.6,263.6 132.8,249.1 151.0,237.5 169.2,232.7 187.4,232.7 205.6,228.8 223.8,221.1 242.1,212.4 260.3,206.6 278.5,202.7 296.7,196.9 314.9,195.0 333.1,192.1 351.3,192.1 369.5,188.2 387.7,186.3 405.9,186.3 424.1,183.4 442.3,173.7 460.5,172.8 478.7,169.9 496.9,167.9 515.1,160.2 533.3,158.3 551.5,151.5 569.7,151.5 587.9,148.6 606.2,147.6 624.4,147.6 642.6,146.7 660.8,143.8 679.0,141.8 697.2,141.8 715.4,141.8 733.6,139.9 751.8,138.9 770.0,137.0" fill="none" stroke="#a855f7" stroke-width="2" stroke-linejoin="round" stroke-linecap="round"/>
  <rect x="62" y="53" width="185" height="88" rx="4" fill="white" fill-opacity="0.9" stroke="#ddd" stroke-width="1"/>
  <line x1="70" y1="65" x2="90" y2="65" stroke="#3b82f6" stroke-width="2.5" stroke-linecap="round"/>
  <circle cx="80" cy="65" r="3" fill="#3b82f6"/>
  <text x="96" y="69" font-size="10" fill="#333">Mixed (all modes)</text>
  <line x1="70" y1="85" x2="90" y2="85" stroke="#22c55e" stroke-width="2.5" stroke-linecap="round"/>
  <circle cx="80" cy="85" r="3" fill="#22c55e"/>
  <text x="96" y="89" font-size="10" fill="#333">Phone (SSB/FM)</text>
  <line x1="70" y1="105" x2="90" y2="105" stroke="#f97316" stroke-width="2.5" stroke-linecap="round"/>
  <circle cx="80" cy="105" r="3" fill="#f97316"/>
  <text x="96" y="109" font-size="10" fill="#333">CW</text>
  <line x1="70" y1="125" x2="90" y2="125" stroke="#a855f7" stroke-width="2.5" stroke-linecap="round"/>
  <circle cx="80" cy="125" r="3" fill="#a855f7"/>
  <text x="96" y="129" font-size="10" fill="#333">Digital (FT8/RTTY/...)</text>
</svg>
