<svg xmlns="http://www.w3.org/2000/svg" viewBox="0 0 800 400" width="800" height="400" style="background:#fff;font-family:Arial,sans-serif">
  <text x="400" y="25" text-anchor="middle" font-size="16" font-weight="bold" fill="#333">DXCC Confirmed Entities Growth - BD4VOJ/QRP</text>
  <line x1="60" y1="340" x2="770" y2="340" stroke="#e5e7eb" stroke-width="1"/>
  <text x="52" y="344" text-anchor="end" font-size="11" fill="#666">0</text>
  <line x1="60" y1="291.6666666666667" x2="770" y2="291.6666666666667" stroke="#e5e7eb" stroke-width="1"/>
  <text x="52" y="295.6666666666667" text-anchor="end" font-size="11" fill="#666">25</text>
  <line x1="60" y1="243.33333333333334" x2="770" y2="243.33333333333334" stroke="#e5e7eb" stroke-width="1"/>
  <text x="52" y="247.33333333333334" text-anchor="end" font-size="11" fill="#666">50</text>
  <line x1="60" y1="195" x2="770" y2="195" stroke="#e5e7eb" stroke-width="1"/>
  <text x="52" y="199" text-anchor="end" font-size="11" fill="#666">75</text>
  <line x1="60" y1="146.66666666666669" x2="770" y2="146.66666666666669" stroke="#e5e7eb" stroke-width="1"/>
  <text x="52" y="150.66666666666669" text-anchor="end" font-size="11" fill="#666">100</text>
  <line x1="60" y1="98.33333333333331" x2="770" y2="98.33333333333331" stroke="#e5e7eb" stroke-width="1"/>
  <text x="52" y="102.33333333333331" text-anchor="end" font-size="11" fill="#666">125</text>
  <line x1="60" y1="50" x2="770" y2="50" stroke="#e5e7eb" stroke-width="1"/>
  <text x="52" y="54" text-anchor="end" font-size="11" fill="#666">150</text>
  <line x1="60" y1="340" x2="770" y2="340" stroke="#999" stroke-width="1"/>
  <line x1="151.61290322580646" y1="340" x2="151.61290322580646" y2="345" stroke="#999" stroke-width="1"/>
  <text x="151.61290322580646" y="360" text-anchor="middle" font-size="10" fill="#666">2023-12</text>
  <line x1="289.0322580645161" y1="340" x2="289.0322580645161" y2="345" stroke="#999" stroke-width="1"/>
  <text x="289.0322580645161" y="360" text-anchor="middle" font-size="10" fill="#666">2024-06</text>
  <line x1="426.4516129032258" y1="340" x2="426.4516129032258" y2="345" stroke="#999" stroke-width="1"/>
  <text x="426.4516129032258" y="360" text-anchor="middle" font-size="10" fill="#666">2024-12</text>
  <line x1="563.8709677419355" y1="340" x2="563.8709677419355" y2="345" stroke="#999" stroke-width="1"/>
  <text x="563.8709677419355" y="360" text-anchor="middle" font-size="10" fill="#666">2025-06</text>
  <line x1="701.2903225806451" y1="340" x2="701.2903225806451" y2="345" stroke="#999" stroke-width="1"/>
  <text x="701.2903225806451" y="360" text-anchor="middle" font-size="10" fill="#666">2025-12</text>
  <line x1="60" y1="50" x2="60" y2="340" stroke="#999" stroke-width="1"/>
  <polyline points="60.0,305.2 82.9,262.7 105.8,262.7 128.7,256.9 151.6,243.3 174.5,233.7 197.4,229.8 220.3,227.9 243.2,220.1 266.1,220.1 289.0,220.1 311.9,214.3 334.8,210.5 357.7,210.5 380.6,189.2 403.5,185.3 426.5,179.5 449.4,175.7 472.3,173.7 495.2,173.7 518.1,171.8 541.0,171.8 563.9,171.8 586.8,169.9 609.7,169.9 632.6,164.1 655.5,152.5 678.4,150.5 701.3,144.7 724.2,142.8 747.1,140.9 770.0,138.9" fill="none" stroke="#3b82f6" stroke-width="2" stroke-linejoin="round" stroke-linecap="round"/>
  <polyline points="60.0,340.0 82.9,340.0 105.8,340.0 128.7,340.0 151.6,340.0 174.5,340.0 197.4,340.0 220.3,340.0 243.2,340.0 266.1,340.0 289.0,340.0 311.9,340.0 334.8,340.0 357.7,340.0 380.6,340.0 403.5,340.0 426.5,340.0 449.4,340.0 472.3,340.0 495.2,340.0 518.1,340.0 541.0,340.0 563.9,340.0 586.8,340.0 609.7,340.0 632.6,340.0 655.5,340.0 678.4,340.0 701.3,340.0 724.2,340.0 747.1,340.0 770.0,340.0" fill="none" stroke="#22c55e" stroke-width="2" stroke-linejoin="round" stroke-linecap="round"/>
  <polyline points="60.0,340.0 82.9,340.0 105.8,340.0 128.7,340.0 151.6,340.0 174.5,340.0 197.4,340.0 220.3,340.0 243.2,340.0 266.1,340.0 289.0,340.0 311.9,340.0 334.8,340.0 357.7,340.0 380.6,340.0 403.5,340.0 426.5,340.0 449.4,340.0 472.3,340.0 495.2,340.0 518.1,340.0 541.0,340.0 563.9,340.0 586.8,340.0 609.7,340.0 632.6,340.0 655.5,340.0 678.4,340.0 701.3,340.0 724.2,340.0 747.1,340.0 770.0,340.0" fill="none" stroke="#f97316" stroke-width="2" stroke-linejoin="round" stroke-linecap="round"/>
  <polyline points="60.0,305.2 82.9,262.7 105.8,262.7 128.7,256.9 151.6,243.3 174.5,233.7 197.4,229.8 220.3,227.9 243.2,220.1 266.1,220.1 289.0,220.1 311.9,214.3 334.8,210.5 357.7,210.5 380.6,189.2 403.5,185.3 426.5,179.5 449.4,175.7 472.3,173.7 495.2,173.7 518.1,171.8 541.0,171.8 563.9,171.8 586.8,169.9 609.7,169.9 632.6,164.1 655.5,152.5 678.4,150.5 701.3,144.7 724.2,142.8 747.1,140.9 770.0,138.9" fill="none" stroke="#a855f7" stroke-width="2" stroke-linejoin="round" stroke-linecap="round"/>
  <rect x="62" y="53" width="185" height="88" rx="4" fill="white" fill-opacity="0.9" stroke="#ddd" stroke-width="1"/>
  <line x1="70" y1="65" x2="90" y2="65" stroke="#3b82f6" stroke-width="2.5" stroke-linecap="round"/>
  <circle cx="80" cy="65" r="3" fill="#3b82f6"/>
  <text x="96" y="69" font-size="10" fill="#333">Mixed (all modes)</text>
  <line x1="70" y1="85" x2="90" y2="85" stroke="#22c55e" stroke-width="2.5" stroke-linecap="round"/>
  <circle cx="80" cy="85" r="3" fill="#22c55e"/>
  <text x="96" y="89" font-size="10" fill="#333">Phone (SSB/FM)</text>
  <line x1="70" y1="105" x2="90" y2="105" stroke="#f97316" stroke-width="2.5" stroke-linecap="round"/>
  <circle cx="80" cy="105" r="3" fill="#f97316"/>
  <text x="96" y="109" font-size="10" fill="#333">CW</text>
  <line x1="70" y1="125" x2="90" y2="125" stroke="#a855f7" stroke-width="2.5" stroke-linecap="round"/>
  <circle cx="80" cy="125" r="3" fill="#a855f7"/>
  <text x="96" y="129" font-size="10" fill="#333">Digital (FT8/RTTY/...)</text>
</svg>
